<svg id="visual" viewBox="0 0 900 600"  width="900" height="600" xmlns="http://www.w3.org/2000/svg" xmlns:xlink="http://www.w3.org/1999/xlink" version="1.1"><g stroke-width="1" stroke-linejoin="bevel"><path d="M533 316L537 360L591 260Z" fill="#00101c" stroke="#00101c"></path><path d="M537 360L607 427L591 260Z" fill="#205a7a" stroke="#205a7a"></path><path d="M607 427L698 393L591 260Z" fill="#081a28" stroke="#081a28"></path><path d="M698 393L709 278L591 260Z" fill="#246688" stroke="#246688"></path><path d="M682 171L591 207L591 260Z" fill="#00101c" stroke="#00101c"></path><path d="M591 260L469 210L533 316Z" fill="#277297" stroke="#277297"></path><path d="M709 278L682 171L591 260Z" fill="#0c2435" stroke="#0c2435"></path><path d="M607 427L720 468L698 393Z" fill="#081a28" stroke="#081a28"></path><path d="M804 338L770 230L709 278Z" fill="#246688" stroke="#246688"></path><path d="M483 503L609 511L607 427Z" fill="#081a28" stroke="#081a28"></path><path d="M607 427L609 511L720 468Z" fill="#19435d" stroke="#19435d"></path><path d="M475 138L469 210L591 207Z" fill="#205a7a" stroke="#205a7a"></path><path d="M591 207L469 210L591 260Z" fill="#19435d" stroke="#19435d"></path><path d="M533 316L366 335L537 360Z" fill="#081a28" stroke="#081a28"></path><path d="M804 338L709 278L698 393Z" fill="#00101c" stroke="#00101c"></path><path d="M709 278L770 230L682 171Z" fill="#00101c" stroke="#00101c"></path><path d="M835 387L804 338L698 393Z" fill="#277297" stroke="#277297"></path><path d="M398 467L483 503L537 360Z" fill="#205a7a" stroke="#205a7a"></path><path d="M537 360L483 503L607 427Z" fill="#00101c" stroke="#00101c"></path><path d="M682 171L565 120L591 207Z" fill="#00101c" stroke="#00101c"></path><path d="M475 138L404 228L469 210Z" fill="#277297" stroke="#277297"></path><path d="M469 210L404 228L533 316Z" fill="#00101c" stroke="#00101c"></path><path d="M565 120L475 138L591 207Z" fill="#1d4e6b" stroke="#1d4e6b"></path><path d="M720 468L835 387L698 393Z" fill="#081a28" stroke="#081a28"></path><path d="M804 338L900 267L770 230Z" fill="#081a28" stroke="#081a28"></path><path d="M404 228L366 335L533 316Z" fill="#1d4e6b" stroke="#1d4e6b"></path><path d="M366 335L364 384L537 360Z" fill="#081a28" stroke="#081a28"></path><path d="M364 384L398 467L537 360Z" fill="#277297" stroke="#277297"></path><path d="M798 600L831 464L720 468Z" fill="#277297" stroke="#277297"></path><path d="M720 468L831 464L835 387Z" fill="#1d4e6b" stroke="#1d4e6b"></path><path d="M536 600L599 600L609 511Z" fill="#297ea6" stroke="#297ea6"></path><path d="M609 511L722 600L720 468Z" fill="#15384f" stroke="#15384f"></path><path d="M536 600L609 511L483 503Z" fill="#297ea6" stroke="#297ea6"></path><path d="M822 63L689 72L682 171Z" fill="#00101c" stroke="#00101c"></path><path d="M682 171L689 72L565 120Z" fill="#112e42" stroke="#112e42"></path><path d="M469 0L381 88L475 138Z" fill="#15384f" stroke="#15384f"></path><path d="M383 600L536 600L483 503Z" fill="#15384f" stroke="#15384f"></path><path d="M599 600L722 600L609 511Z" fill="#246688" stroke="#246688"></path><path d="M900 429L900 267L835 387Z" fill="#205a7a" stroke="#205a7a"></path><path d="M835 387L900 267L804 338Z" fill="#246688" stroke="#246688"></path><path d="M770 230L822 63L682 171Z" fill="#246688" stroke="#246688"></path><path d="M364 384L288 474L398 467Z" fill="#0c2435" stroke="#0c2435"></path><path d="M398 467L383 600L483 503Z" fill="#15384f" stroke="#15384f"></path><path d="M366 335L298 383L364 384Z" fill="#0c2435" stroke="#0c2435"></path><path d="M278 271L298 383L366 335Z" fill="#15384f" stroke="#15384f"></path><path d="M900 538L900 429L831 464Z" fill="#205a7a" stroke="#205a7a"></path><path d="M831 464L900 429L835 387Z" fill="#00101c" stroke="#00101c"></path><path d="M900 267L900 227L770 230Z" fill="#1d4e6b" stroke="#1d4e6b"></path><path d="M469 0L475 138L565 120Z" fill="#00101c" stroke="#00101c"></path><path d="M475 138L381 88L404 228Z" fill="#277297" stroke="#277297"></path><path d="M404 228L278 271L366 335Z" fill="#246688" stroke="#246688"></path><path d="M722 600L798 600L720 468Z" fill="#1d4e6b" stroke="#1d4e6b"></path><path d="M731 0L599 0L689 72Z" fill="#081a28" stroke="#081a28"></path><path d="M689 72L599 0L565 120Z" fill="#1d4e6b" stroke="#1d4e6b"></path><path d="M280 196L278 271L404 228Z" fill="#15384f" stroke="#15384f"></path><path d="M900 227L822 63L770 230Z" fill="#205a7a" stroke="#205a7a"></path><path d="M226 372L288 474L298 383Z" fill="#112e42" stroke="#112e42"></path><path d="M298 383L288 474L364 384Z" fill="#19435d" stroke="#19435d"></path><path d="M319 600L383 600L398 467Z" fill="#112e42" stroke="#112e42"></path><path d="M381 88L280 196L404 228Z" fill="#277297" stroke="#277297"></path><path d="M822 63L731 0L689 72Z" fill="#277297" stroke="#277297"></path><path d="M599 0L469 0L565 120Z" fill="#0c2435" stroke="#0c2435"></path><path d="M798 600L900 538L831 464Z" fill="#19435d" stroke="#19435d"></path><path d="M230 201L239 306L278 271Z" fill="#1d4e6b" stroke="#1d4e6b"></path><path d="M278 271L239 306L298 383Z" fill="#246688" stroke="#246688"></path><path d="M239 306L226 372L298 383Z" fill="#19435d" stroke="#19435d"></path><path d="M280 196L230 201L278 271Z" fill="#00101c" stroke="#00101c"></path><path d="M239 306L95 260L226 372Z" fill="#277297" stroke="#277297"></path><path d="M381 88L272 136L280 196Z" fill="#246688" stroke="#246688"></path><path d="M328 0L272 136L381 88Z" fill="#277297" stroke="#277297"></path><path d="M288 474L319 600L398 467Z" fill="#112e42" stroke="#112e42"></path><path d="M198 600L319 600L288 474Z" fill="#19435d" stroke="#19435d"></path><path d="M900 227L900 72L822 63Z" fill="#19435d" stroke="#19435d"></path><path d="M822 63L825 0L731 0Z" fill="#19435d" stroke="#19435d"></path><path d="M272 136L230 201L280 196Z" fill="#0c2435" stroke="#0c2435"></path><path d="M900 0L825 0L822 63Z" fill="#246688" stroke="#246688"></path><path d="M798 600L900 600L900 538Z" fill="#00101c" stroke="#00101c"></path><path d="M469 0L360 0L381 88Z" fill="#297ea6" stroke="#297ea6"></path><path d="M360 0L328 0L381 88Z" fill="#277297" stroke="#277297"></path><path d="M272 136L218 127L230 201Z" fill="#19435d" stroke="#19435d"></path><path d="M95 419L198 491L226 372Z" fill="#19435d" stroke="#19435d"></path><path d="M226 372L198 491L288 474Z" fill="#112e42" stroke="#112e42"></path><path d="M328 0L218 127L272 136Z" fill="#246688" stroke="#246688"></path><path d="M230 201L95 260L239 306Z" fill="#0c2435" stroke="#0c2435"></path><path d="M900 72L900 0L822 63Z" fill="#297ea6" stroke="#297ea6"></path><path d="M198 491L198 600L288 474Z" fill="#112e42" stroke="#112e42"></path><path d="M81 204L230 201L218 127Z" fill="#081a28" stroke="#081a28"></path><path d="M81 204L95 260L230 201Z" fill="#0c2435" stroke="#0c2435"></path><path d="M198 491L92 485L198 600Z" fill="#246688" stroke="#246688"></path><path d="M95 260L95 419L226 372Z" fill="#0c2435" stroke="#0c2435"></path><path d="M73 600L92 485L0 480Z" fill="#0c2435" stroke="#0c2435"></path><path d="M95 419L92 485L198 491Z" fill="#1d4e6b" stroke="#1d4e6b"></path><path d="M84 91L81 204L218 127Z" fill="#19435d" stroke="#19435d"></path><path d="M95 260L0 313L95 419Z" fill="#19435d" stroke="#19435d"></path><path d="M328 0L178 0L218 127Z" fill="#205a7a" stroke="#205a7a"></path><path d="M178 0L84 91L218 127Z" fill="#19435d" stroke="#19435d"></path><path d="M178 0L136 0L84 91Z" fill="#081a28" stroke="#081a28"></path><path d="M0 480L92 485L95 419Z" fill="#112e42" stroke="#112e42"></path><path d="M92 485L73 600L198 600Z" fill="#15384f" stroke="#15384f"></path><path d="M0 197L95 260L81 204Z" fill="#246688" stroke="#246688"></path><path d="M0 197L0 313L95 260Z" fill="#19435d" stroke="#19435d"></path><path d="M0 313L0 367L95 419Z" fill="#246688" stroke="#246688"></path><path d="M0 132L0 197L81 204Z" fill="#277297" stroke="#277297"></path><path d="M0 132L81 204L84 91Z" fill="#1d4e6b" stroke="#1d4e6b"></path><path d="M0 367L0 480L95 419Z" fill="#297ea6" stroke="#297ea6"></path><path d="M0 0L0 132L84 91Z" fill="#19435d" stroke="#19435d"></path><path d="M0 480L0 600L73 600Z" fill="#112e42" stroke="#112e42"></path><path d="M136 0L0 0L84 91Z" fill="#205a7a" stroke="#205a7a"></path></g></svg>